<?xml version="1.0" encoding="UTF-8" standalone="no"?>
<!DOCTYPE svg PUBLIC "-//W3C//DTD SVG 1.1//EN"
 "http://www.w3.org/Graphics/SVG/1.1/DTD/svg11.dtd">
<!-- Generated by graphviz version 2.47.3 (20210619.1520)
 -->
<!-- Title: dependencies Pages: 1 -->
<svg width="993pt" height="174pt"
 viewBox="0.00 0.00 993.00 173.80" xmlns="http://www.w3.org/2000/svg" xmlns:xlink="http://www.w3.org/1999/xlink">
<g id="graph0" class="graph" transform="scale(1 1) rotate(0) translate(4 169.8)">
<title>dependencies</title>
<polygon fill="white" stroke="transparent" points="-4,4 -4,-169.8 989,-169.8 989,4 -4,4"/>
<text text-anchor="middle" x="492.5" y="-8.2" font-family="sans-serif" font-size="14.00">dependencies</text>
<g id="clust1" class="cluster">
<title>cluster_ServicesModule</title>
<polygon fill="none" stroke="black" stroke-dasharray="1,5" points="8,-32.8 8,-157.8 977,-157.8 977,-32.8 8,-32.8"/>
</g>
<g id="clust6" class="cluster">
<title>cluster_ServicesModule_providers</title>
<polygon fill="none" stroke="black" points="16,-40.8 16,-92.8 969,-92.8 969,-40.8 16,-40.8"/>
</g>
<!-- AnalysisService -->
<g id="node1" class="node">
<title>AnalysisService</title>
<ellipse fill="#fdb462" stroke="black" cx="887" cy="-66.8" rx="73.57" ry="18"/>
<text text-anchor="middle" x="887" y="-62.6" font-family="Times,serif" font-size="14.00">AnalysisService</text>
</g>
<!-- ServicesModule -->
<g id="node7" class="node">
<title>ServicesModule</title>
<polygon fill="#8dd3c7" stroke="black" points="586.47,-149.8 583.47,-153.8 562.47,-153.8 559.47,-149.8 479.53,-149.8 479.53,-113.8 586.47,-113.8 586.47,-149.8"/>
<text text-anchor="middle" x="533" y="-127.6" font-family="Times,serif" font-size="14.00">ServicesModule</text>
</g>
<!-- AnalysisService&#45;&gt;ServicesModule -->
<g id="edge1" class="edge">
<title>AnalysisService&#45;&gt;ServicesModule</title>
<path fill="none" stroke="black" d="M887,-85.08C887,-106.12 887,-137.8 887,-137.8 887,-137.8 596.76,-137.8 596.76,-137.8"/>
<polygon fill="black" stroke="black" points="596.77,-134.3 586.76,-137.8 596.76,-141.3 596.77,-134.3"/>
</g>
<!-- PlantService -->
<g id="node2" class="node">
<title>PlantService</title>
<ellipse fill="#fdb462" stroke="black" cx="735" cy="-66.8" rx="59.69" ry="18"/>
<text text-anchor="middle" x="735" y="-62.6" font-family="Times,serif" font-size="14.00">PlantService</text>
</g>
<!-- PlantService&#45;&gt;ServicesModule -->
<g id="edge2" class="edge">
<title>PlantService&#45;&gt;ServicesModule</title>
<path fill="none" stroke="black" d="M735,-84.82C735,-102.17 735,-125.8 735,-125.8 735,-125.8 596.6,-125.8 596.6,-125.8"/>
<polygon fill="black" stroke="black" points="596.6,-122.3 586.6,-125.8 596.6,-129.3 596.6,-122.3"/>
</g>
<!-- PlotService -->
<g id="node3" class="node">
<title>PlotService</title>
<ellipse fill="#fdb462" stroke="black" cx="602" cy="-66.8" rx="55.61" ry="18"/>
<text text-anchor="middle" x="602" y="-62.6" font-family="Times,serif" font-size="14.00">PlotService</text>
</g>
<!-- PlotService&#45;&gt;ServicesModule -->
<g id="edge3" class="edge">
<title>PlotService&#45;&gt;ServicesModule</title>
<path fill="none" stroke="black" d="M566.47,-80.9C566.47,-80.9 566.47,-103.52 566.47,-103.52"/>
<polygon fill="black" stroke="black" points="562.97,-103.52 566.47,-113.52 569.97,-103.52 562.97,-103.52"/>
</g>
<!-- ResultService -->
<g id="node4" class="node">
<title>ResultService</title>
<ellipse fill="#fdb462" stroke="black" cx="464" cy="-66.8" rx="64.84" ry="18"/>
<text text-anchor="middle" x="464" y="-62.6" font-family="Times,serif" font-size="14.00">ResultService</text>
</g>
<!-- ResultService&#45;&gt;ServicesModule -->
<g id="edge4" class="edge">
<title>ResultService&#45;&gt;ServicesModule</title>
<path fill="none" stroke="black" d="M504.09,-81.23C504.09,-81.23 504.09,-103.69 504.09,-103.69"/>
<polygon fill="black" stroke="black" points="500.59,-103.69 504.09,-113.69 507.59,-103.69 500.59,-103.69"/>
</g>
<!-- SecurityInterceptor -->
<g id="node5" class="node">
<title>SecurityInterceptor</title>
<ellipse fill="#fdb462" stroke="black" cx="296" cy="-66.8" rx="85.65" ry="18"/>
<text text-anchor="middle" x="296" y="-62.6" font-family="Times,serif" font-size="14.00">SecurityInterceptor</text>
</g>
<!-- SecurityInterceptor&#45;&gt;ServicesModule -->
<g id="edge5" class="edge">
<title>SecurityInterceptor&#45;&gt;ServicesModule</title>
<path fill="none" stroke="black" d="M296,-84.82C296,-102.17 296,-125.8 296,-125.8 296,-125.8 469.52,-125.8 469.52,-125.8"/>
<polygon fill="black" stroke="black" points="469.52,-129.3 479.52,-125.8 469.52,-122.3 469.52,-129.3"/>
</g>
<!-- TranslationService -->
<g id="node6" class="node">
<title>TranslationService</title>
<ellipse fill="#fdb462" stroke="black" cx="108" cy="-66.8" rx="83.94" ry="18"/>
<text text-anchor="middle" x="108" y="-62.6" font-family="Times,serif" font-size="14.00">TranslationService</text>
</g>
<!-- TranslationService&#45;&gt;ServicesModule -->
<g id="edge6" class="edge">
<title>TranslationService&#45;&gt;ServicesModule</title>
<path fill="none" stroke="black" d="M108,-85.08C108,-106.12 108,-137.8 108,-137.8 108,-137.8 469.17,-137.8 469.17,-137.8"/>
<polygon fill="black" stroke="black" points="469.17,-141.3 479.17,-137.8 469.17,-134.3 469.17,-141.3"/>
</g>
</g>
</svg>
