<?xml version="1.0" encoding="UTF-8" standalone="no"?>
<!DOCTYPE svg PUBLIC "-//W3C//DTD SVG 1.1//EN"
 "http://www.w3.org/Graphics/SVG/1.1/DTD/svg11.dtd">
<!-- Generated by graphviz version 2.47.3 (20210619.1520)
 -->
<!-- Title: dependencies Pages: 1 -->
<svg width="469pt" height="247pt"
 viewBox="0.00 0.00 469.00 246.80" xmlns="http://www.w3.org/2000/svg" xmlns:xlink="http://www.w3.org/1999/xlink">
<g id="graph0" class="graph" transform="scale(1 1) rotate(0) translate(4 242.8)">
<title>dependencies</title>
<polygon fill="white" stroke="transparent" points="-4,4 -4,-242.8 465,-242.8 465,4 -4,4"/>
<text text-anchor="middle" x="230.5" y="-8.2" font-family="sans-serif" font-size="14.00">dependencies</text>
<g id="clust1" class="cluster">
<title>cluster_SharedModule</title>
<polygon fill="none" stroke="black" stroke-dasharray="1,5" points="8,-32.8 8,-230.8 453,-230.8 453,-32.8 8,-32.8"/>
</g>
<g id="clust5" class="cluster">
<title>cluster_SharedModule_imports</title>
<polygon fill="none" stroke="black" points="318,-40.8 318,-92.8 440,-92.8 440,-40.8 318,-40.8"/>
</g>
<g id="clust6" class="cluster">
<title>cluster_SharedModule_exports</title>
<polygon fill="none" stroke="black" points="16,-170.8 16,-222.8 445,-222.8 445,-170.8 16,-170.8"/>
</g>
<g id="clust2" class="cluster">
<title>cluster_SharedModule_declarations</title>
<polygon fill="none" stroke="black" points="16,-40.8 16,-92.8 310,-92.8 310,-40.8 16,-40.8"/>
</g>
<!-- HomeComponent -->
<g id="node1" class="node">
<title>HomeComponent</title>
<polygon fill="#ffffb3" stroke="black" points="301.55,-84.8 186.45,-84.8 186.45,-48.8 301.55,-48.8 301.55,-84.8"/>
<text text-anchor="middle" x="244" y="-62.6" font-family="Times,serif" font-size="14.00">HomeComponent</text>
</g>
<!-- SharedModule -->
<g id="node3" class="node">
<title>SharedModule</title>
<polygon fill="#8dd3c7" stroke="black" points="284.42,-149.8 281.42,-153.8 260.42,-153.8 257.42,-149.8 185.58,-149.8 185.58,-113.8 284.42,-113.8 284.42,-149.8"/>
<text text-anchor="middle" x="235" y="-127.6" font-family="Times,serif" font-size="14.00">SharedModule</text>
</g>
<!-- HomeComponent&#45;&gt;SharedModule -->
<g id="edge1" class="edge">
<title>HomeComponent&#45;&gt;SharedModule</title>
<path fill="none" stroke="black" d="M235.22,-84.91C235.22,-84.91 235.22,-103.79 235.22,-103.79"/>
<polygon fill="black" stroke="black" points="231.72,-103.79 235.22,-113.79 238.72,-103.79 231.72,-103.79"/>
</g>
<!-- NavigationComponent -->
<g id="node2" class="node">
<title>NavigationComponent</title>
<polygon fill="#ffffb3" stroke="black" points="167.54,-84.8 24.46,-84.8 24.46,-48.8 167.54,-48.8 167.54,-84.8"/>
<text text-anchor="middle" x="96" y="-62.6" font-family="Times,serif" font-size="14.00">NavigationComponent</text>
</g>
<!-- NavigationComponent&#45;&gt;SharedModule -->
<g id="edge2" class="edge">
<title>NavigationComponent&#45;&gt;SharedModule</title>
<path fill="none" stroke="black" d="M160.12,-84.82C160.12,-102.17 160.12,-125.8 160.12,-125.8 160.12,-125.8 175.47,-125.8 175.47,-125.8"/>
<polygon fill="black" stroke="black" points="175.47,-129.3 185.47,-125.8 175.47,-122.3 175.47,-129.3"/>
</g>
<!-- HomeComponent  -->
<g id="node5" class="node">
<title>HomeComponent </title>
<polygon fill="#fb8072" stroke="black" points="436.54,-214.8 317.46,-214.8 317.46,-178.8 436.54,-178.8 436.54,-214.8"/>
<text text-anchor="middle" x="377" y="-192.6" font-family="Times,serif" font-size="14.00">HomeComponent </text>
</g>
<!-- SharedModule&#45;&gt;HomeComponent  -->
<g id="edge4" class="edge">
<title>SharedModule&#45;&gt;HomeComponent </title>
<path fill="none" stroke="black" stroke-dasharray="5,2" d="M284.31,-137.8C303.74,-137.8 321.5,-137.8 321.5,-137.8 321.5,-137.8 321.5,-168.78 321.5,-168.78"/>
<polygon fill="black" stroke="black" points="318,-168.78 321.5,-178.78 325,-168.78 318,-168.78"/>
</g>
<!-- NavigationComponent  -->
<g id="node6" class="node">
<title>NavigationComponent </title>
<polygon fill="#fb8072" stroke="black" points="299.54,-214.8 152.46,-214.8 152.46,-178.8 299.54,-178.8 299.54,-214.8"/>
<text text-anchor="middle" x="226" y="-192.6" font-family="Times,serif" font-size="14.00">NavigationComponent </text>
</g>
<!-- SharedModule&#45;&gt;NavigationComponent  -->
<g id="edge5" class="edge">
<title>SharedModule&#45;&gt;NavigationComponent </title>
<path fill="none" stroke="black" stroke-dasharray="5,2" d="M235,-149.91C235,-149.91 235,-168.79 235,-168.79"/>
<polygon fill="black" stroke="black" points="231.5,-168.79 235,-178.79 238.5,-168.79 231.5,-168.79"/>
</g>
<!-- ServicesModule  -->
<g id="node7" class="node">
<title>ServicesModule </title>
<polygon fill="#fb8072" stroke="black" points="134.47,-214.8 23.53,-214.8 23.53,-178.8 134.47,-178.8 134.47,-214.8"/>
<text text-anchor="middle" x="79" y="-192.6" font-family="Times,serif" font-size="14.00">ServicesModule </text>
</g>
<!-- SharedModule&#45;&gt;ServicesModule  -->
<g id="edge6" class="edge">
<title>SharedModule&#45;&gt;ServicesModule </title>
<path fill="none" stroke="black" stroke-dasharray="5,2" d="M185.71,-137.8C140.08,-137.8 79.23,-137.8 79.23,-137.8 79.23,-137.8 79.23,-168.78 79.23,-168.78"/>
<polygon fill="black" stroke="black" points="75.73,-168.78 79.23,-178.78 82.73,-168.78 75.73,-168.78"/>
</g>
<!-- ServicesModule -->
<g id="node4" class="node">
<title>ServicesModule</title>
<polygon fill="#8dd3c7" stroke="black" points="432.47,-84.8 429.47,-88.8 408.47,-88.8 405.47,-84.8 325.53,-84.8 325.53,-48.8 432.47,-48.8 432.47,-84.8"/>
<text text-anchor="middle" x="379" y="-62.6" font-family="Times,serif" font-size="14.00">ServicesModule</text>
</g>
<!-- ServicesModule&#45;&gt;SharedModule -->
<g id="edge3" class="edge">
<title>ServicesModule&#45;&gt;SharedModule</title>
<path fill="none" stroke="black" d="M379,-84.82C379,-102.17 379,-125.8 379,-125.8 379,-125.8 294.56,-125.8 294.56,-125.8"/>
<polygon fill="black" stroke="black" points="294.56,-122.3 284.56,-125.8 294.56,-129.3 294.56,-122.3"/>
</g>
</g>
</svg>
