<?xml version="1.0" encoding="UTF-8" standalone="no"?>
<!DOCTYPE svg PUBLIC "-//W3C//DTD SVG 1.1//EN"
 "http://www.w3.org/Graphics/SVG/1.1/DTD/svg11.dtd">
<!-- Generated by graphviz version 2.47.3 (20210619.1520)
 -->
<!-- Title: dependencies Pages: 1 -->
<svg width="1558pt" height="247pt"
 viewBox="0.00 0.00 1558.00 246.80" xmlns="http://www.w3.org/2000/svg" xmlns:xlink="http://www.w3.org/1999/xlink">
<g id="graph0" class="graph" transform="scale(1 1) rotate(0) translate(4 242.8)">
<title>dependencies</title>
<polygon fill="white" stroke="transparent" points="-4,4 -4,-242.8 1554,-242.8 1554,4 -4,4"/>
<text text-anchor="middle" x="775" y="-8.2" font-family="sans-serif" font-size="14.00">dependencies</text>
<g id="clust1" class="cluster">
<title>cluster_UserModule</title>
<polygon fill="none" stroke="black" stroke-dasharray="1,5" points="8,-32.8 8,-230.8 1542,-230.8 1542,-32.8 8,-32.8"/>
</g>
<g id="clust11" class="cluster">
<title>cluster_UserModule_imports</title>
<polygon fill="none" stroke="black" points="1272,-40.8 1272,-92.8 1534,-92.8 1534,-40.8 1272,-40.8"/>
</g>
<g id="clust2" class="cluster">
<title>cluster_UserModule_declarations</title>
<polygon fill="none" stroke="black" points="16,-40.8 16,-92.8 1264,-92.8 1264,-40.8 16,-40.8"/>
</g>
<g id="clust12" class="cluster">
<title>cluster_UserModule_exports</title>
<polygon fill="none" stroke="black" points="315,-170.8 315,-222.8 1279,-222.8 1279,-170.8 315,-170.8"/>
</g>
<!-- AnalysisComponent -->
<g id="node1" class="node">
<title>AnalysisComponent</title>
<polygon fill="#ffffb3" stroke="black" points="1256.32,-84.8 1125.68,-84.8 1125.68,-48.8 1256.32,-48.8 1256.32,-84.8"/>
<text text-anchor="middle" x="1191" y="-62.6" font-family="Times,serif" font-size="14.00">AnalysisComponent</text>
</g>
<!-- UserModule -->
<g id="node9" class="node">
<title>UserModule</title>
<polygon fill="#8dd3c7" stroke="black" points="841.98,-149.8 838.98,-153.8 817.98,-153.8 814.98,-149.8 756.02,-149.8 756.02,-113.8 841.98,-113.8 841.98,-149.8"/>
<text text-anchor="middle" x="799" y="-127.6" font-family="Times,serif" font-size="14.00">UserModule</text>
</g>
<!-- AnalysisComponent&#45;&gt;UserModule -->
<g id="edge1" class="edge">
<title>AnalysisComponent&#45;&gt;UserModule</title>
<path fill="none" stroke="black" d="M1131.46,-84.83C1131.46,-101.86 1131.46,-124.8 1131.46,-124.8 1131.46,-124.8 852.12,-124.8 852.12,-124.8"/>
<polygon fill="black" stroke="black" points="852.12,-121.3 842.12,-124.8 852.12,-128.3 852.12,-121.3"/>
</g>
<!-- DashboardComponent -->
<g id="node2" class="node">
<title>DashboardComponent</title>
<polygon fill="#ffffb3" stroke="black" points="1107.97,-84.8 966.03,-84.8 966.03,-48.8 1107.97,-48.8 1107.97,-84.8"/>
<text text-anchor="middle" x="1037" y="-62.6" font-family="Times,serif" font-size="14.00">DashboardComponent</text>
</g>
<!-- DashboardComponent&#45;&gt;UserModule -->
<g id="edge2" class="edge">
<title>DashboardComponent&#45;&gt;UserModule</title>
<path fill="none" stroke="black" d="M969.64,-85.04C969.64,-100.37 969.64,-119.8 969.64,-119.8 969.64,-119.8 852.06,-119.8 852.06,-119.8"/>
<polygon fill="black" stroke="black" points="852.06,-116.3 842.06,-119.8 852.06,-123.3 852.06,-116.3"/>
</g>
<!-- PlantCardComponent -->
<g id="node3" class="node">
<title>PlantCardComponent</title>
<polygon fill="#ffffb3" stroke="black" points="947.82,-84.8 810.18,-84.8 810.18,-48.8 947.82,-48.8 947.82,-84.8"/>
<text text-anchor="middle" x="879" y="-62.6" font-family="Times,serif" font-size="14.00">PlantCardComponent</text>
</g>
<!-- PlantCardComponent&#45;&gt;UserModule -->
<g id="edge3" class="edge">
<title>PlantCardComponent&#45;&gt;UserModule</title>
<path fill="none" stroke="black" d="M826.16,-84.91C826.16,-84.91 826.16,-103.79 826.16,-103.79"/>
<polygon fill="black" stroke="black" points="822.66,-103.79 826.16,-113.79 829.66,-103.79 822.66,-103.79"/>
</g>
<!-- PlantDetailComponent -->
<g id="node4" class="node">
<title>PlantDetailComponent</title>
<polygon fill="#ffffb3" stroke="black" points="792.32,-84.8 647.68,-84.8 647.68,-48.8 792.32,-48.8 792.32,-84.8"/>
<text text-anchor="middle" x="720" y="-62.6" font-family="Times,serif" font-size="14.00">PlantDetailComponent</text>
</g>
<!-- PlantDetailComponent&#45;&gt;UserModule -->
<g id="edge4" class="edge">
<title>PlantDetailComponent&#45;&gt;UserModule</title>
<path fill="none" stroke="black" d="M774.09,-84.91C774.09,-84.91 774.09,-103.79 774.09,-103.79"/>
<polygon fill="black" stroke="black" points="770.59,-103.79 774.09,-113.79 777.59,-103.79 770.59,-103.79"/>
</g>
<!-- PlotCardComponent -->
<g id="node5" class="node">
<title>PlotCardComponent</title>
<polygon fill="#ffffb3" stroke="black" points="629.61,-84.8 498.39,-84.8 498.39,-48.8 629.61,-48.8 629.61,-84.8"/>
<text text-anchor="middle" x="564" y="-62.6" font-family="Times,serif" font-size="14.00">PlotCardComponent</text>
</g>
<!-- PlotCardComponent&#45;&gt;UserModule -->
<g id="edge5" class="edge">
<title>PlotCardComponent&#45;&gt;UserModule</title>
<path fill="none" stroke="black" d="M585.68,-85.04C585.68,-100.37 585.68,-119.8 585.68,-119.8 585.68,-119.8 745.83,-119.8 745.83,-119.8"/>
<polygon fill="black" stroke="black" points="745.83,-123.3 755.83,-119.8 745.83,-116.3 745.83,-123.3"/>
</g>
<!-- PlotDetailComponent -->
<g id="node6" class="node">
<title>PlotDetailComponent</title>
<polygon fill="#ffffb3" stroke="black" points="480.1,-84.8 341.9,-84.8 341.9,-48.8 480.1,-48.8 480.1,-84.8"/>
<text text-anchor="middle" x="411" y="-62.6" font-family="Times,serif" font-size="14.00">PlotDetailComponent</text>
</g>
<!-- PlotDetailComponent&#45;&gt;UserModule -->
<g id="edge6" class="edge">
<title>PlotDetailComponent&#45;&gt;UserModule</title>
<path fill="none" stroke="black" d="M473.38,-84.83C473.38,-101.86 473.38,-124.8 473.38,-124.8 473.38,-124.8 745.76,-124.8 745.76,-124.8"/>
<polygon fill="black" stroke="black" points="745.76,-128.3 755.76,-124.8 745.76,-121.3 745.76,-128.3"/>
</g>
<!-- PlotOverviewComponent -->
<g id="node7" class="node">
<title>PlotOverviewComponent</title>
<polygon fill="#ffffb3" stroke="black" points="323.59,-84.8 164.41,-84.8 164.41,-48.8 323.59,-48.8 323.59,-84.8"/>
<text text-anchor="middle" x="244" y="-62.6" font-family="Times,serif" font-size="14.00">PlotOverviewComponent</text>
</g>
<!-- PlotOverviewComponent&#45;&gt;UserModule -->
<g id="edge7" class="edge">
<title>PlotOverviewComponent&#45;&gt;UserModule</title>
<path fill="none" stroke="black" d="M243.72,-85.02C243.72,-103.63 243.72,-129.8 243.72,-129.8 243.72,-129.8 745.89,-129.8 745.89,-129.8"/>
<polygon fill="black" stroke="black" points="745.89,-133.3 755.89,-129.8 745.89,-126.3 745.89,-133.3"/>
</g>
<!-- UploadComponent -->
<g id="node8" class="node">
<title>UploadComponent</title>
<polygon fill="#ffffb3" stroke="black" points="146.05,-84.8 23.95,-84.8 23.95,-48.8 146.05,-48.8 146.05,-84.8"/>
<text text-anchor="middle" x="85" y="-62.6" font-family="Times,serif" font-size="14.00">UploadComponent</text>
</g>
<!-- UploadComponent&#45;&gt;UserModule -->
<g id="edge8" class="edge">
<title>UploadComponent&#45;&gt;UserModule</title>
<path fill="none" stroke="black" d="M85,-85.02C85,-105.17 85,-134.8 85,-134.8 85,-134.8 745.94,-134.8 745.94,-134.8"/>
<polygon fill="black" stroke="black" points="745.94,-138.3 755.94,-134.8 745.94,-131.3 745.94,-138.3"/>
</g>
<!-- AnalysisComponent  -->
<g id="node12" class="node">
<title>AnalysisComponent </title>
<polygon fill="#fb8072" stroke="black" points="1270.82,-214.8 1137.18,-214.8 1137.18,-178.8 1270.82,-178.8 1270.82,-214.8"/>
<text text-anchor="middle" x="1204" y="-192.6" font-family="Times,serif" font-size="14.00">AnalysisComponent </text>
</g>
<!-- UserModule&#45;&gt;AnalysisComponent  -->
<g id="edge11" class="edge">
<title>UserModule&#45;&gt;AnalysisComponent </title>
<path fill="none" stroke="black" stroke-dasharray="5,2" d="M842.31,-139.8C945.37,-139.8 1196.62,-139.8 1196.62,-139.8 1196.62,-139.8 1196.62,-168.76 1196.62,-168.76"/>
<polygon fill="black" stroke="black" points="1193.13,-168.76 1196.62,-178.76 1200.13,-168.76 1193.13,-168.76"/>
</g>
<!-- DashboardComponent  -->
<g id="node13" class="node">
<title>DashboardComponent </title>
<polygon fill="#fb8072" stroke="black" points="1118.97,-214.8 973.03,-214.8 973.03,-178.8 1118.97,-178.8 1118.97,-214.8"/>
<text text-anchor="middle" x="1046" y="-192.6" font-family="Times,serif" font-size="14.00">DashboardComponent </text>
</g>
<!-- UserModule&#45;&gt;DashboardComponent  -->
<g id="edge12" class="edge">
<title>UserModule&#45;&gt;DashboardComponent </title>
<path fill="none" stroke="black" stroke-dasharray="5,2" d="M842.2,-144.8C911.7,-144.8 1040.62,-144.8 1040.62,-144.8 1040.62,-144.8 1040.62,-168.61 1040.62,-168.61"/>
<polygon fill="black" stroke="black" points="1037.13,-168.61 1040.62,-178.61 1044.13,-168.61 1037.13,-168.61"/>
</g>
<!-- PlantDetailComponent  -->
<g id="node14" class="node">
<title>PlantDetailComponent </title>
<polygon fill="#fb8072" stroke="black" points="954.82,-214.8 807.18,-214.8 807.18,-178.8 954.82,-178.8 954.82,-214.8"/>
<text text-anchor="middle" x="881" y="-192.6" font-family="Times,serif" font-size="14.00">PlantDetailComponent </text>
</g>
<!-- UserModule&#45;&gt;PlantDetailComponent  -->
<g id="edge13" class="edge">
<title>UserModule&#45;&gt;PlantDetailComponent </title>
<path fill="none" stroke="black" stroke-dasharray="5,2" d="M824.54,-149.91C824.54,-149.91 824.54,-168.79 824.54,-168.79"/>
<polygon fill="black" stroke="black" points="821.04,-168.79 824.54,-178.79 828.04,-168.79 821.04,-168.79"/>
</g>
<!-- PlotDetailComponent  -->
<g id="node15" class="node">
<title>PlotDetailComponent </title>
<polygon fill="#fb8072" stroke="black" points="788.6,-214.8 647.4,-214.8 647.4,-178.8 788.6,-178.8 788.6,-214.8"/>
<text text-anchor="middle" x="718" y="-192.6" font-family="Times,serif" font-size="14.00">PlotDetailComponent </text>
</g>
<!-- UserModule&#45;&gt;PlotDetailComponent  -->
<g id="edge14" class="edge">
<title>UserModule&#45;&gt;PlotDetailComponent </title>
<path fill="none" stroke="black" stroke-dasharray="5,2" d="M772.41,-149.91C772.41,-149.91 772.41,-168.79 772.41,-168.79"/>
<polygon fill="black" stroke="black" points="768.91,-168.79 772.41,-178.79 775.91,-168.79 768.91,-168.79"/>
</g>
<!-- PlotOverviewComponent  -->
<g id="node16" class="node">
<title>PlotOverviewComponent </title>
<polygon fill="#fb8072" stroke="black" points="629.09,-214.8 466.91,-214.8 466.91,-178.8 629.09,-178.8 629.09,-214.8"/>
<text text-anchor="middle" x="548" y="-192.6" font-family="Times,serif" font-size="14.00">PlotOverviewComponent </text>
</g>
<!-- UserModule&#45;&gt;PlotOverviewComponent  -->
<g id="edge15" class="edge">
<title>UserModule&#45;&gt;PlotOverviewComponent </title>
<path fill="none" stroke="black" stroke-dasharray="5,2" d="M755.99,-144.8C682.85,-144.8 542.06,-144.8 542.06,-144.8 542.06,-144.8 542.06,-168.61 542.06,-168.61"/>
<polygon fill="black" stroke="black" points="538.56,-168.61 542.06,-178.61 545.56,-168.61 538.56,-168.61"/>
</g>
<!-- UploadComponent  -->
<g id="node17" class="node">
<title>UploadComponent </title>
<polygon fill="#fb8072" stroke="black" points="449.04,-214.8 322.96,-214.8 322.96,-178.8 449.04,-178.8 449.04,-214.8"/>
<text text-anchor="middle" x="386" y="-192.6" font-family="Times,serif" font-size="14.00">UploadComponent </text>
</g>
<!-- UserModule&#45;&gt;UploadComponent  -->
<g id="edge16" class="edge">
<title>UserModule&#45;&gt;UploadComponent </title>
<path fill="none" stroke="black" stroke-dasharray="5,2" d="M755.82,-139.8C651.72,-139.8 395.49,-139.8 395.49,-139.8 395.49,-139.8 395.49,-168.76 395.49,-168.76"/>
<polygon fill="black" stroke="black" points="391.99,-168.76 395.49,-178.76 398.99,-168.76 391.99,-168.76"/>
</g>
<!-- SharedModule -->
<g id="node10" class="node">
<title>SharedModule</title>
<polygon fill="#8dd3c7" stroke="black" points="1526.42,-84.8 1523.42,-88.8 1502.42,-88.8 1499.42,-84.8 1427.58,-84.8 1427.58,-48.8 1526.42,-48.8 1526.42,-84.8"/>
<text text-anchor="middle" x="1477" y="-62.6" font-family="Times,serif" font-size="14.00">SharedModule</text>
</g>
<!-- SharedModule&#45;&gt;UserModule -->
<g id="edge9" class="edge">
<title>SharedModule&#45;&gt;UserModule</title>
<path fill="none" stroke="black" d="M1477,-85.02C1477,-105.17 1477,-134.8 1477,-134.8 1477,-134.8 852.18,-134.8 852.18,-134.8"/>
<polygon fill="black" stroke="black" points="852.18,-131.3 842.18,-134.8 852.18,-138.3 852.18,-131.3"/>
</g>
<!-- UserRoutingmodule -->
<g id="node11" class="node">
<title>UserRoutingmodule</title>
<polygon fill="#8dd3c7" stroke="black" points="1409.54,-84.8 1406.54,-88.8 1385.54,-88.8 1382.54,-84.8 1280.46,-84.8 1280.46,-48.8 1409.54,-48.8 1409.54,-84.8"/>
<text text-anchor="middle" x="1345" y="-62.6" font-family="Times,serif" font-size="14.00">UserRoutingmodule</text>
</g>
<!-- UserRoutingmodule&#45;&gt;UserModule -->
<g id="edge10" class="edge">
<title>UserRoutingmodule&#45;&gt;UserModule</title>
<path fill="none" stroke="black" d="M1345,-85.02C1345,-103.63 1345,-129.8 1345,-129.8 1345,-129.8 852.3,-129.8 852.3,-129.8"/>
<polygon fill="black" stroke="black" points="852.3,-126.3 842.3,-129.8 852.3,-133.3 852.3,-126.3"/>
</g>
</g>
</svg>
