<?xml version="1.0" encoding="UTF-8" standalone="no"?>
<!DOCTYPE svg PUBLIC "-//W3C//DTD SVG 1.1//EN"
 "http://www.w3.org/Graphics/SVG/1.1/DTD/svg11.dtd">
<!-- Generated by graphviz version 2.47.3 (20210619.1520)
 -->
<!-- Title: dependencies Pages: 1 -->
<svg width="438pt" height="247pt"
 viewBox="0.00 0.00 438.00 246.80" xmlns="http://www.w3.org/2000/svg" xmlns:xlink="http://www.w3.org/1999/xlink">
<g id="graph0" class="graph" transform="scale(1 1) rotate(0) translate(4 242.8)">
<title>dependencies</title>
<polygon fill="white" stroke="transparent" points="-4,4 -4,-242.8 434,-242.8 434,4 -4,4"/>
<text text-anchor="middle" x="215" y="-8.2" font-family="sans-serif" font-size="14.00">dependencies</text>
<g id="clust1" class="cluster">
<title>cluster_AuthenticationModule</title>
<polygon fill="none" stroke="black" stroke-dasharray="1,5" points="8,-32.8 8,-230.8 422,-230.8 422,-32.8 8,-32.8"/>
</g>
<g id="clust2" class="cluster">
<title>cluster_AuthenticationModule_declarations</title>
<polygon fill="none" stroke="black" points="138,-40.8 138,-92.8 414,-92.8 414,-40.8 138,-40.8"/>
</g>
<g id="clust6" class="cluster">
<title>cluster_AuthenticationModule_exports</title>
<polygon fill="none" stroke="black" points="73,-170.8 73,-222.8 357,-222.8 357,-170.8 73,-170.8"/>
</g>
<g id="clust5" class="cluster">
<title>cluster_AuthenticationModule_imports</title>
<polygon fill="none" stroke="black" points="16,-40.8 16,-92.8 130,-92.8 130,-40.8 16,-40.8"/>
</g>
<!-- LoginComponent -->
<g id="node1" class="node">
<title>LoginComponent</title>
<polygon fill="#ffffb3" stroke="black" points="406.28,-84.8 291.72,-84.8 291.72,-48.8 406.28,-48.8 406.28,-84.8"/>
<text text-anchor="middle" x="349" y="-62.6" font-family="Times,serif" font-size="14.00">LoginComponent</text>
</g>
<!-- AuthenticationModule -->
<g id="node3" class="node">
<title>AuthenticationModule</title>
<polygon fill="#8dd3c7" stroke="black" points="281.25,-149.8 278.25,-153.8 257.25,-153.8 254.25,-149.8 138.75,-149.8 138.75,-113.8 281.25,-113.8 281.25,-149.8"/>
<text text-anchor="middle" x="210" y="-127.6" font-family="Times,serif" font-size="14.00">AuthenticationModule</text>
</g>
<!-- LoginComponent&#45;&gt;AuthenticationModule -->
<g id="edge1" class="edge">
<title>LoginComponent&#45;&gt;AuthenticationModule</title>
<path fill="none" stroke="black" d="M291.43,-66.8C283.33,-66.8 277.68,-66.8 277.68,-66.8 277.68,-66.8 277.68,-103.69 277.68,-103.69"/>
<polygon fill="black" stroke="black" points="274.18,-103.69 277.68,-113.69 281.18,-103.69 274.18,-103.69"/>
</g>
<!-- RegisterComponent -->
<g id="node2" class="node">
<title>RegisterComponent</title>
<polygon fill="#ffffb3" stroke="black" points="273.98,-84.8 146.02,-84.8 146.02,-48.8 273.98,-48.8 273.98,-84.8"/>
<text text-anchor="middle" x="210" y="-62.6" font-family="Times,serif" font-size="14.00">RegisterComponent</text>
</g>
<!-- RegisterComponent&#45;&gt;AuthenticationModule -->
<g id="edge2" class="edge">
<title>RegisterComponent&#45;&gt;AuthenticationModule</title>
<path fill="none" stroke="black" d="M210,-84.91C210,-84.91 210,-103.79 210,-103.79"/>
<polygon fill="black" stroke="black" points="206.5,-103.79 210,-113.79 213.5,-103.79 206.5,-103.79"/>
</g>
<!-- LoginComponent  -->
<g id="node5" class="node">
<title>LoginComponent </title>
<polygon fill="#fb8072" stroke="black" points="349.28,-214.8 230.72,-214.8 230.72,-178.8 349.28,-178.8 349.28,-214.8"/>
<text text-anchor="middle" x="290" y="-192.6" font-family="Times,serif" font-size="14.00">LoginComponent </text>
</g>
<!-- AuthenticationModule&#45;&gt;LoginComponent  -->
<g id="edge4" class="edge">
<title>AuthenticationModule&#45;&gt;LoginComponent </title>
<path fill="none" stroke="black" stroke-dasharray="5,2" d="M256.12,-149.91C256.12,-149.91 256.12,-168.79 256.12,-168.79"/>
<polygon fill="black" stroke="black" points="252.62,-168.79 256.12,-178.79 259.62,-168.79 252.62,-168.79"/>
</g>
<!-- RegisterComponent  -->
<g id="node6" class="node">
<title>RegisterComponent </title>
<polygon fill="#fb8072" stroke="black" points="212.99,-214.8 81.01,-214.8 81.01,-178.8 212.99,-178.8 212.99,-214.8"/>
<text text-anchor="middle" x="147" y="-192.6" font-family="Times,serif" font-size="14.00">RegisterComponent </text>
</g>
<!-- AuthenticationModule&#45;&gt;RegisterComponent  -->
<g id="edge5" class="edge">
<title>AuthenticationModule&#45;&gt;RegisterComponent </title>
<path fill="none" stroke="black" stroke-dasharray="5,2" d="M175.68,-149.91C175.68,-149.91 175.68,-168.79 175.68,-168.79"/>
<polygon fill="black" stroke="black" points="172.18,-168.79 175.68,-178.79 179.18,-168.79 172.18,-168.79"/>
</g>
<!-- SharedModule -->
<g id="node4" class="node">
<title>SharedModule</title>
<polygon fill="#8dd3c7" stroke="black" points="122.42,-84.8 119.42,-88.8 98.42,-88.8 95.42,-84.8 23.58,-84.8 23.58,-48.8 122.42,-48.8 122.42,-84.8"/>
<text text-anchor="middle" x="73" y="-62.6" font-family="Times,serif" font-size="14.00">SharedModule</text>
</g>
<!-- SharedModule&#45;&gt;AuthenticationModule -->
<g id="edge3" class="edge">
<title>SharedModule&#45;&gt;AuthenticationModule</title>
<path fill="none" stroke="black" d="M122.27,-66.8C133.56,-66.8 142.32,-66.8 142.32,-66.8 142.32,-66.8 142.32,-103.69 142.32,-103.69"/>
<polygon fill="black" stroke="black" points="138.82,-103.69 142.32,-113.69 145.82,-103.69 138.82,-103.69"/>
</g>
</g>
</svg>
