<?xml version="1.0" encoding="UTF-8" standalone="no"?>
<!DOCTYPE svg PUBLIC "-//W3C//DTD SVG 1.1//EN"
 "http://www.w3.org/Graphics/SVG/1.1/DTD/svg11.dtd">
<!-- Generated by graphviz version 2.47.3 (20210619.1520)
 -->
<!-- Title: dependencies Pages: 1 -->
<svg width="846pt" height="247pt"
 viewBox="0.00 0.00 846.00 246.80" xmlns="http://www.w3.org/2000/svg" xmlns:xlink="http://www.w3.org/1999/xlink">
<g id="graph0" class="graph" transform="scale(1 1) rotate(0) translate(4 242.8)">
<title>dependencies</title>
<polygon fill="white" stroke="transparent" points="-4,4 -4,-242.8 842,-242.8 842,4 -4,4"/>
<text text-anchor="middle" x="419" y="-8.2" font-family="sans-serif" font-size="14.00">dependencies</text>
<g id="clust1" class="cluster">
<title>cluster_AppModule</title>
<polygon fill="none" stroke="black" stroke-dasharray="1,5" points="8,-32.8 8,-230.8 830,-230.8 830,-32.8 8,-32.8"/>
</g>
<g id="clust2" class="cluster">
<title>cluster_AppModule_declarations</title>
<polygon fill="none" stroke="black" points="564,-40.8 564,-92.8 822,-92.8 822,-40.8 564,-40.8"/>
</g>
<g id="clust5" class="cluster">
<title>cluster_AppModule_imports</title>
<polygon fill="none" stroke="black" points="16,-40.8 16,-92.8 556,-92.8 556,-40.8 16,-40.8"/>
</g>
<g id="clust7" class="cluster">
<title>cluster_AppModule_bootstrap</title>
<polygon fill="none" stroke="black" points="346,-170.8 346,-222.8 470,-222.8 470,-170.8 346,-170.8"/>
</g>
<!-- AppComponent -->
<g id="node1" class="node">
<title>AppComponent</title>
<polygon fill="#ffffb3" stroke="black" points="813.94,-84.8 708.06,-84.8 708.06,-48.8 813.94,-48.8 813.94,-84.8"/>
<text text-anchor="middle" x="761" y="-62.6" font-family="Times,serif" font-size="14.00">AppComponent</text>
</g>
<!-- AppModule -->
<g id="node3" class="node">
<title>AppModule</title>
<polygon fill="#8dd3c7" stroke="black" points="449.66,-149.8 446.66,-153.8 425.66,-153.8 422.66,-149.8 366.34,-149.8 366.34,-113.8 449.66,-113.8 449.66,-149.8"/>
<text text-anchor="middle" x="408" y="-127.6" font-family="Times,serif" font-size="14.00">AppModule</text>
</g>
<!-- AppComponent&#45;&gt;AppModule -->
<g id="edge1" class="edge">
<title>AppComponent&#45;&gt;AppModule</title>
<path fill="none" stroke="black" d="M761,-85.08C761,-106.12 761,-137.8 761,-137.8 761,-137.8 459.88,-137.8 459.88,-137.8"/>
<polygon fill="black" stroke="black" points="459.88,-134.3 449.88,-137.8 459.88,-141.3 459.88,-134.3"/>
</g>
<!-- FooterComponent -->
<g id="node2" class="node">
<title>FooterComponent</title>
<polygon fill="#ffffb3" stroke="black" points="689.88,-84.8 572.12,-84.8 572.12,-48.8 689.88,-48.8 689.88,-84.8"/>
<text text-anchor="middle" x="631" y="-62.6" font-family="Times,serif" font-size="14.00">FooterComponent</text>
</g>
<!-- FooterComponent&#45;&gt;AppModule -->
<g id="edge2" class="edge">
<title>FooterComponent&#45;&gt;AppModule</title>
<path fill="none" stroke="black" d="M631,-84.82C631,-102.17 631,-125.8 631,-125.8 631,-125.8 459.68,-125.8 459.68,-125.8"/>
<polygon fill="black" stroke="black" points="459.68,-122.3 449.68,-125.8 459.68,-129.3 459.68,-122.3"/>
</g>
<!-- AppComponent  -->
<g id="node8" class="node">
<title>AppComponent </title>
<polygon fill="#80b1d3" stroke="black" points="462.44,-214.8 353.56,-214.8 353.56,-178.8 462.44,-178.8 462.44,-214.8"/>
<text text-anchor="middle" x="408" y="-192.6" font-family="Times,serif" font-size="14.00">AppComponent </text>
</g>
<!-- AppModule&#45;&gt;AppComponent  -->
<g id="edge7" class="edge">
<title>AppModule&#45;&gt;AppComponent </title>
<path fill="none" stroke="black" stroke-dasharray="1,5" d="M408,-149.91C408,-149.91 408,-168.79 408,-168.79"/>
<polygon fill="black" stroke="black" points="404.5,-168.79 408,-178.79 411.5,-168.79 404.5,-168.79"/>
</g>
<!-- AppRoutingModule -->
<g id="node4" class="node">
<title>AppRoutingModule</title>
<polygon fill="#8dd3c7" stroke="black" points="548.27,-84.8 545.27,-88.8 524.27,-88.8 521.27,-84.8 419.73,-84.8 419.73,-48.8 548.27,-48.8 548.27,-84.8"/>
<text text-anchor="middle" x="484" y="-62.6" font-family="Times,serif" font-size="14.00">AppRoutingModule</text>
</g>
<!-- AppRoutingModule&#45;&gt;AppModule -->
<g id="edge3" class="edge">
<title>AppRoutingModule&#45;&gt;AppModule</title>
<path fill="none" stroke="black" d="M434.72,-84.91C434.72,-84.91 434.72,-103.79 434.72,-103.79"/>
<polygon fill="black" stroke="black" points="431.22,-103.79 434.72,-113.79 438.22,-103.79 431.22,-103.79"/>
</g>
<!-- AuthenticatedModule -->
<g id="node5" class="node">
<title>AuthenticatedModule</title>
<polygon fill="#8dd3c7" stroke="black" points="402.08,-84.8 399.08,-88.8 378.08,-88.8 375.08,-84.8 263.92,-84.8 263.92,-48.8 402.08,-48.8 402.08,-84.8"/>
<text text-anchor="middle" x="333" y="-62.6" font-family="Times,serif" font-size="14.00">AuthenticatedModule</text>
</g>
<!-- AuthenticatedModule&#45;&gt;AppModule -->
<g id="edge4" class="edge">
<title>AuthenticatedModule&#45;&gt;AppModule</title>
<path fill="none" stroke="black" d="M384.11,-84.91C384.11,-84.91 384.11,-103.79 384.11,-103.79"/>
<polygon fill="black" stroke="black" points="380.61,-103.79 384.11,-113.79 387.61,-103.79 380.61,-103.79"/>
</g>
<!-- SecurityModule -->
<g id="node6" class="node">
<title>SecurityModule</title>
<polygon fill="#8dd3c7" stroke="black" points="246.2,-84.8 243.2,-88.8 222.2,-88.8 219.2,-84.8 139.8,-84.8 139.8,-48.8 246.2,-48.8 246.2,-84.8"/>
<text text-anchor="middle" x="193" y="-62.6" font-family="Times,serif" font-size="14.00">SecurityModule</text>
</g>
<!-- SecurityModule&#45;&gt;AppModule -->
<g id="edge5" class="edge">
<title>SecurityModule&#45;&gt;AppModule</title>
<path fill="none" stroke="black" d="M193,-84.82C193,-102.17 193,-125.8 193,-125.8 193,-125.8 356.29,-125.8 356.29,-125.8"/>
<polygon fill="black" stroke="black" points="356.29,-129.3 366.29,-125.8 356.29,-122.3 356.29,-129.3"/>
</g>
<!-- SharedModule -->
<g id="node7" class="node">
<title>SharedModule</title>
<polygon fill="#8dd3c7" stroke="black" points="122.42,-84.8 119.42,-88.8 98.42,-88.8 95.42,-84.8 23.58,-84.8 23.58,-48.8 122.42,-48.8 122.42,-84.8"/>
<text text-anchor="middle" x="73" y="-62.6" font-family="Times,serif" font-size="14.00">SharedModule</text>
</g>
<!-- SharedModule&#45;&gt;AppModule -->
<g id="edge6" class="edge">
<title>SharedModule&#45;&gt;AppModule</title>
<path fill="none" stroke="black" d="M73,-85.08C73,-106.12 73,-137.8 73,-137.8 73,-137.8 356.25,-137.8 356.25,-137.8"/>
<polygon fill="black" stroke="black" points="356.25,-141.3 366.25,-137.8 356.25,-134.3 356.25,-141.3"/>
</g>
</g>
</svg>
