<?xml version="1.0" encoding="UTF-8" standalone="no"?>
<!DOCTYPE svg PUBLIC "-//W3C//DTD SVG 1.1//EN"
 "http://www.w3.org/Graphics/SVG/1.1/DTD/svg11.dtd">
<!-- Generated by graphviz version 2.47.3 (20210619.1520)
 -->
<!-- Title: dependencies Pages: 1 -->
<svg width="178pt" height="174pt"
 viewBox="0.00 0.00 178.00 173.80" xmlns="http://www.w3.org/2000/svg" xmlns:xlink="http://www.w3.org/1999/xlink">
<g id="graph0" class="graph" transform="scale(1 1) rotate(0) translate(4 169.8)">
<title>dependencies</title>
<polygon fill="white" stroke="transparent" points="-4,4 -4,-169.8 174,-169.8 174,4 -4,4"/>
<text text-anchor="middle" x="85" y="-8.2" font-family="sans-serif" font-size="14.00">dependencies</text>
<g id="clust1" class="cluster">
<title>cluster_AuthenticatedModule</title>
<polygon fill="none" stroke="black" stroke-dasharray="1,5" points="8,-32.8 8,-157.8 162,-157.8 162,-32.8 8,-32.8"/>
</g>
<g id="clust3" class="cluster">
<title>cluster_AuthenticatedModule_imports</title>
<polygon fill="none" stroke="black" points="34,-40.8 34,-92.8 136,-92.8 136,-40.8 34,-40.8"/>
</g>
<!-- UserModule -->
<g id="node1" class="node">
<title>UserModule</title>
<polygon fill="#8dd3c7" stroke="black" points="127.98,-84.8 124.98,-88.8 103.98,-88.8 100.98,-84.8 42.02,-84.8 42.02,-48.8 127.98,-48.8 127.98,-84.8"/>
<text text-anchor="middle" x="85" y="-62.6" font-family="Times,serif" font-size="14.00">UserModule</text>
</g>
<!-- AuthenticatedModule -->
<g id="node2" class="node">
<title>AuthenticatedModule</title>
<polygon fill="#8dd3c7" stroke="black" points="154.08,-149.8 151.08,-153.8 130.08,-153.8 127.08,-149.8 15.92,-149.8 15.92,-113.8 154.08,-113.8 154.08,-149.8"/>
<text text-anchor="middle" x="85" y="-127.6" font-family="Times,serif" font-size="14.00">AuthenticatedModule</text>
</g>
<!-- UserModule&#45;&gt;AuthenticatedModule -->
<g id="edge1" class="edge">
<title>UserModule&#45;&gt;AuthenticatedModule</title>
<path fill="none" stroke="black" d="M85,-84.91C85,-84.91 85,-103.79 85,-103.79"/>
<polygon fill="black" stroke="black" points="81.5,-103.79 85,-113.79 88.5,-103.79 81.5,-103.79"/>
</g>
</g>
</svg>
